<?xml version="1.0" standalone="no"?>
<!DOCTYPE svg PUBLIC "-//W3C//DTD SVG 20010904//EN"
 "http://www.w3.org/TR/2001/REC-SVG-20010904/DTD/svg10.dtd">
<svg version="1.0" xmlns="http://www.w3.org/2000/svg"
 width="700.000000pt" height="700.000000pt" viewBox="0 0 700.000000 700.000000"
 preserveAspectRatio="xMidYMid meet">
<metadata>
Created by potrace 1.11, written by Peter Selinger 2001-2013
</metadata>
<g transform="translate(0.000000,700.000000) scale(0.100000,-0.100000)"
fill="#000000" stroke="none">
<path d="M3400 6663 c0 -5 -11 -21 -25 -38 -13 -16 -104 -131 -201 -255 -210
-266 -395 -501 -434 -550 -16 -19 -139 -177 -275 -350 -136 -173 -254 -324
-263 -335 -36 -43 -82 -103 -82 -106 0 -2 100 -4 223 -4 l222 0 0 -833 c0
-544 -3 -835 -10 -840 -6 -4 -64 -74 -131 -157 -371 -461 -536 -727 -649
-1042 -38 -107 -30 -110 49 -22 44 49 68 85 186 284 144 242 372 554 563 770
80 90 334 346 417 420 74 65 277 226 326 258 21 14 73 49 114 77 284 195 553
307 786 327 l61 5 -8 -54 c-24 -152 -124 -365 -227 -488 -12 -14 -25 -29 -29
-35 -41 -53 -158 -184 -272 -304 -127 -135 -269 -302 -293 -344 -8 -17 -7 -18
14 -12 100 32 171 91 355 295 117 131 290 299 361 353 91 67 210 127 322 160
187 56 257 75 290 81 19 3 46 9 60 12 14 3 95 8 180 10 233 7 247 11 209 71
-54 84 -202 93 -454 27 -144 -38 -253 -76 -380 -133 -64 -29 -68 -30 -49 -9
23 25 118 139 177 210 168 206 269 393 260 488 -7 85 -154 135 -318 107 -92
-15 -300 -85 -334 -111 -11 -8 -13 -8 -7 2 4 7 7 113 6 237 0 209 1 225 17
226 10 0 100 1 201 2 100 0 182 2 182 3 0 2 -62 92 -138 201 -76 109 -144 208
-152 220 -8 12 -107 153 -220 315 -113 161 -216 309 -230 329 -345 499 -399
570 -400 532z"/>
<path d="M930 1844 c0 -9 11 -14 29 -14 44 0 78 -16 97 -46 16 -24 18 -63 19
-413 0 -212 -2 -403 -6 -424 -10 -58 -43 -80 -121 -80 -10 0 -18 -7 -18 -16 0
-14 23 -16 212 -14 251 2 229 0 223 16 -3 6 -22 13 -43 14 -99 7 -106 28 -103
338 l1 110 47 -2 c27 -1 51 -2 55 -2 7 -1 50 -59 223 -301 39 -54 78 -108 88
-121 10 -13 22 -30 26 -38 7 -10 37 -14 127 -13 66 0 127 1 137 1 23 1 22 31
-1 31 -43 0 -116 35 -156 74 -41 42 -271 351 -282 380 -4 10 -1 16 10 16 29 0
121 47 155 80 78 76 96 206 41 295 -35 57 -95 101 -163 120 -85 25 -597 32
-597 9z m479 -56 c155 -43 194 -260 66 -366 -44 -35 -98 -53 -187 -59 l-68 -5
-1 76 c0 42 -1 92 -1 111 0 239 1 243 25 247 44 8 131 5 166 -4z"/>
<path d="M1970 1845 c0 -7 20 -15 48 -19 33 -4 56 -14 72 -31 l24 -25 1 -377
c1 -413 -3 -475 -28 -500 -9 -9 -38 -20 -64 -23 -31 -3 -49 -10 -51 -20 -2
-13 27 -15 218 -15 186 0 220 2 218 14 -2 9 -18 16 -38 18 -53 6 -86 22 -98
48 -12 27 -15 812 -3 855 8 30 63 60 109 60 23 0 32 4 30 13 -7 18 -438 20
-438 2z"/>
<path d="M2475 1852 c-10 -10 8 -22 34 -22 49 0 88 -20 101 -51 14 -32 19
-788 6 -847 -9 -38 -47 -62 -102 -64 -37 -1 -52 -12 -33 -24 15 -9 762 -10
776 -1 6 4 23 44 38 90 15 45 30 91 35 102 20 48 20 55 0 55 -11 0 -20 -5 -20
-11 0 -31 -93 -141 -140 -165 -51 -26 -350 -30 -381 -5 -20 16 -21 27 -21 217
-1 110 1 205 5 210 3 5 65 9 146 8 124 -2 144 -5 175 -23 29 -18 37 -31 47
-76 7 -33 18 -55 26 -55 10 0 13 36 13 180 0 153 -2 180 -15 180 -8 0 -15 -7
-15 -16 0 -65 -38 -118 -91 -130 -31 -6 -280 -6 -286 0 -3 3 -6 93 -7 201 -1
189 0 195 19 196 71 2 324 -2 342 -5 55 -11 79 -37 103 -108 9 -29 22 -54 30
-56 10 -4 11 19 7 109 -3 63 -6 114 -7 115 -1 4 -781 0 -785 -4z"/>
<path d="M3413 1844 c0 -9 12 -14 34 -14 48 0 89 -24 101 -59 12 -35 15 -794
3 -838 -9 -35 -47 -61 -94 -66 -39 -4 -55 -13 -44 -23 9 -9 462 -9 554 0 175
16 300 83 383 205 167 246 88 627 -155 745 -99 49 -165 57 -486 61 -250 3
-296 1 -296 -11z m563 -60 c103 -31 186 -98 236 -190 58 -108 71 -299 29 -427
-43 -129 -130 -216 -260 -261 -40 -13 -189 -15 -236 -3 -11 3 -25 6 -30 6 -7
1 -11 142 -11 434 l0 432 41 11 c53 15 180 14 231 -2z"/>
<path d="M4540 1844 c0 -9 12 -14 33 -14 44 0 95 -33 104 -67 4 -15 7 -206 7
-423 -1 -474 1 -465 -108 -473 -42 -3 -46 -27 -4 -28 37 -1 389 -1 400 0 4 1
5 7 2 14 -3 8 -18 14 -33 14 -45 0 -88 22 -100 52 -8 19 -11 153 -9 444 3 407
3 417 24 437 12 13 41 24 70 28 27 4 49 12 49 17 0 6 -82 10 -217 11 -177 1
-218 -1 -218 -12z"/>
<path d="M5043 1843 c0 -8 12 -13 31 -13 45 0 99 -31 107 -60 11 -40 10 -815
-1 -844 -12 -33 -50 -57 -94 -59 -20 -1 -36 -5 -36 -9 0 -5 -1 -11 -2 -15 -3
-7 780 -9 785 -2 2 2 22 62 45 134 26 82 38 133 32 139 -5 5 -11 8 -12 5 -2
-2 -16 -30 -32 -62 -16 -32 -49 -75 -73 -96 -55 -49 -109 -60 -286 -57 -189 3
-171 -42 -172 445 0 421 1 431 47 460 11 7 45 15 75 18 33 4 52 10 50 17 -6
17 -464 17 -464 -1z"/>
</g>
</svg>
